<?xml version="1.0" encoding="utf-8"?>
<!-- Generator: Adobe Illustrator 27.5.0, SVG Export Plug-In . SVG Version: 6.00 Build 0)  -->
<svg version="1.1"
	 id="svg8" xmlns:svg="http://www.w3.org/2000/svg" xmlns:rdf="http://www.w3.org/1999/02/22-rdf-syntax-ns#" xmlns:cc="http://creativecommons.org/ns#" xmlns:sodipodi="http://sodipodi.sourceforge.net/DTD/sodipodi-0.dtd" xmlns:inkscape="http://www.inkscape.org/namespaces/inkscape" xmlns:dc="http://purl.org/dc/elements/1.1/" inkscape:version="0.92.1 r15371"
	 xmlns="http://www.w3.org/2000/svg" xmlns:xlink="http://www.w3.org/1999/xlink" x="0px" y="0px" viewBox="0 0 378 351.8"
	 style="enable-background:new 0 0 378 351.8;" xml:space="preserve">
<style type="text/css">
	.st0{fill:none;}
	.st1{fill:none;stroke:#333333;stroke-width:5.3206;stroke-linecap:round;stroke-linejoin:round;stroke-miterlimit:11.3386;}
</style>
<sodipodi:namedview  bordercolor="#666666" borderopacity="1.0" fit-margin-bottom="0" fit-margin-left="0" fit-margin-right="0" fit-margin-top="0" id="base" inkscape:current-layer="layer1" inkscape:cx="341.50164" inkscape:cy="274.11346" inkscape:document-units="mm" inkscape:pageopacity="0.0" inkscape:pageshadow="2" inkscape:window-height="1016" inkscape:window-maximized="1" inkscape:window-width="1920" inkscape:window-x="0" inkscape:window-y="27" inkscape:zoom="0.98994949" pagecolor="#ffffff" showgrid="false">
	</sodipodi:namedview>
<path id="path4496-6-2" inkscape:connector-curvature="0" sodipodi:nodetypes="czcccccccccczcccc" class="st0" d="M139.9,2.7
	c0,0-35.7,11.3-44.5,16.7c-8.8,5.4-79,74.4-92.7,86.7c16,22.7,39.4,56.2,39.4,56.2l46.3-26.7v213.5h99.6h2.2h99.6V135.6l46.3,26.7
	c0,0,23.8-33.2,39.4-56.2c-13.7-12.3-85.8-82.7-92.7-86.7c-6.9-4-44.5-16.7-44.5-16.7h-48h-2.2H139.9z"/>
<path id="path4496-3" inkscape:connector-curvature="0" class="st1" d="M139.9,2.7L95.4,19.4c0,0-79,74.4-92.7,86.7
	c15.6,23,39.4,56.2,39.4,56.2l46.3-26.7v213.5h99.6h2.2h99.6V135.6l46.3,26.7c0,0,23.8-33.2,39.4-56.2
	c-13.7-12.3-92.7-86.7-92.7-86.7L238.2,2.7h-48h-2.2H139.9z"/>
</svg>
