<?xml version="1.0" encoding="UTF-8" standalone="no"?>
<!-- Created with Inkscape (http://www.inkscape.org/) -->

<svg
   xmlns:dc="http://purl.org/dc/elements/1.1/"
   xmlns:cc="http://creativecommons.org/ns#"
   xmlns:rdf="http://www.w3.org/1999/02/22-rdf-syntax-ns#"
   xmlns:svg="http://www.w3.org/2000/svg"
   xmlns="http://www.w3.org/2000/svg"
   xmlns:sodipodi="http://sodipodi.sourceforge.net/DTD/sodipodi-0.dtd"
   xmlns:inkscape="http://www.inkscape.org/namespaces/inkscape"
   width="133.35883mm"
   height="124.10055mm"
   viewBox="0 0 133.35882 124.10055"
   version="1.1"
   id="svg8"
   sodipodi:docname="FX13_tshirt2.svg"
   inkscape:version="0.92.1 r15371">
  <defs
     id="defs2" />
  <sodipodi:namedview
     id="base"
     pagecolor="#ffffff"
     bordercolor="#666666"
     borderopacity="1.0"
     inkscape:pageopacity="0.0"
     inkscape:pageshadow="2"
     inkscape:zoom="0.98994949"
     inkscape:cx="341.50164"
     inkscape:cy="274.11346"
     inkscape:document-units="mm"
     inkscape:current-layer="layer1"
     showgrid="false"
     inkscape:window-width="1920"
     inkscape:window-height="1016"
     inkscape:window-x="0"
     inkscape:window-y="27"
     inkscape:window-maximized="1"
     fit-margin-top="0"
     fit-margin-left="0"
     fit-margin-right="0"
     fit-margin-bottom="0" />
  <metadata
     id="metadata5">
    <rdf:RDF>
      <cc:Work
         rdf:about="">
        <dc:format>image/svg+xml</dc:format>
        <dc:type
           rdf:resource="http://purl.org/dc/dcmitype/StillImage" />
        <dc:title></dc:title>
      </cc:Work>
    </rdf:RDF>
  </metadata>
  <g
     inkscape:label="Layer 1"
     inkscape:groupmode="layer"
     id="layer1"
     transform="translate(-32.36028,-83.662019)">
    <path
       inkscape:connector-curvature="0"
       style="fill:#cccccc;stroke:none;stroke-width:1.87732697;stroke-linecap:butt;stroke-linejoin:miter;stroke-miterlimit:4;stroke-dasharray:none;stroke-opacity:1"
       d="m 81.699288,84.600519 -15.689125,5.909009 c 0,0 -27.87398,26.243922 -32.711413,30.589832 5.495537,8.11844 13.898578,19.83055 13.898578,19.83055 l 16.318787,-9.42159 v 75.31575 h 35.127114 0.792926 35.127105 v -75.31575 l 16.31879,9.42159 c 0,0 8.40305,-11.71211 13.89858,-19.83055 -4.83743,-4.34591 -32.71142,-30.589832 -32.71142,-30.589832 L 116.3801,84.600519 H 99.436155 98.643229 Z"
       id="path4496-7-0" />
    <path
       style="fill:#cccccc;stroke:none;stroke-width:1.87732697;stroke-linecap:butt;stroke-linejoin:miter;stroke-miterlimit:4;stroke-dasharray:none;stroke-opacity:1"
       d="m 81.699289,84.600517 c 0,0 -12.601775,3.990353 -15.689125,5.909008 -3.08735,1.918656 -27.87398,26.243925 -32.711414,30.589835 5.628137,8.01236 13.898578,19.83055 13.898578,19.83055 l 16.318788,-9.42159 v 75.31575 h 35.127114 0.792926 35.127104 v -75.31575 l 16.31879,9.42159 c 0,0 8.40305,-11.71212 13.89858,-19.83056 C 159.9432,116.75345 134.5019,91.914034 132.06922,90.509525 129.63654,89.105017 116.3801,84.600517 116.3801,84.600517 H 99.436156 98.64323 Z"
       id="path4496-6-2"
       clip-path="none"
       inkscape:connector-curvature="0"
       sodipodi:nodetypes="czcccccccccczcccc" />
    <path
       inkscape:connector-curvature="0"
       style="fill:#cccccc;stroke:#333333;stroke-width:1.87699997;stroke-linecap:round;stroke-linejoin:round;stroke-miterlimit:4;stroke-dasharray:none;stroke-opacity:1"
       d="m 81.699288,84.600519 -15.689125,5.909009 c 0,0 -27.87398,26.243922 -32.711413,30.589832 5.495537,8.11844 13.898578,19.83055 13.898578,19.83055 l 16.318787,-9.42159 v 75.31575 h 35.127114 0.792926 35.127105 v -75.31575 l 16.31879,9.42159 c 0,0 8.40305,-11.71211 13.89858,-19.83055 -4.83743,-4.34591 -32.71142,-30.589832 -32.71142,-30.589832 L 116.3801,84.600519 H 99.436155 98.643229 Z"
       id="path4496-3"
       clip-path="none" />
    <path
       style="fill:#333333;stroke:none;stroke-width:1.87732685;stroke-linecap:butt;stroke-linejoin:miter;stroke-miterlimit:4;stroke-dasharray:none;stroke-opacity:1"
       d="m 36.831848,117.85053 c -0.08114,0.0752 -0.190667,0.17722 -0.269915,0.25064 l 14.067171,20.84745 0.422512,-0.24407 c -0.700938,-1.04723 -11.575683,-17.288 -14.219768,-20.85402 z"
       id="path4496-7"
       inkscape:connector-curvature="0" />
    <path
       style="fill:#333333;stroke:none;stroke-width:1.87732685;stroke-linecap:butt;stroke-linejoin:miter;stroke-miterlimit:4;stroke-dasharray:none;stroke-opacity:1"
       clip-path="none"
       d="m 161.05104,117.61097 c -2.23786,2.93547 -13.31138,19.46779 -14.29483,20.93688 l 0.42333,0.24448 14.12788,-20.9377 c -0.0779,-0.0737 -0.17681,-0.16825 -0.25638,-0.24366 z"
       id="path4496-6"
       inkscape:connector-curvature="0" />
    <path
       style="fill:none;stroke:#333333;stroke-width:1.98448944;stroke-linecap:butt;stroke-linejoin:miter;stroke-miterlimit:4;stroke-dasharray:none;stroke-opacity:1"
       d="m 81.699288,84.600519 c 0,12.61083 6.681401,21.631161 17.228097,21.583811 C 109.47408,106.13698 116.268,97.878125 116.268,84.600519"
       id="path4538-6"
       inkscape:connector-curvature="0"
       sodipodi:nodetypes="czc" />
    <path
       style="fill:none;stroke:#333333;stroke-width:0.21035586;stroke-linecap:butt;stroke-linejoin:miter;stroke-miterlimit:4;stroke-dasharray:none;stroke-opacity:1"
       d="m 134.56326,131.50832 c 0,0 -4.28338,-19.10565 -4.21723,-26.12157 0.0661,-7.015921 1.72318,-14.877222 1.72318,-14.877222"
       id="path4712"
       inkscape:connector-curvature="0"
       sodipodi:nodetypes="czc" />
    <path
       style="fill:none;stroke:#333333;stroke-width:0.21035586;stroke-linecap:butt;stroke-linejoin:miter;stroke-miterlimit:4;stroke-dasharray:none;stroke-opacity:1"
       d="m 63.516115,131.50832 c 0,0 4.283385,-19.10565 4.21723,-26.12157 -0.06612,-7.015921 -1.72318,-14.877222 -1.72318,-14.877222"
       id="path4712-9"
       inkscape:connector-curvature="0"
       sodipodi:nodetypes="czc" />
    <path
       style="fill:none;stroke:#333333;stroke-width:0.21002512px;stroke-linecap:butt;stroke-linejoin:miter;stroke-opacity:1"
       d="M 82.75486,86.832421 H 116.5089"
       id="path4729"
       inkscape:connector-curvature="0" />
    <path
       style="fill:none;stroke:#333333;stroke-width:0.21002512px;stroke-linecap:butt;stroke-linejoin:miter;stroke-opacity:1"
       d="m 119.50925,85.782293 c 0,0 0.75238,23.252777 -20.252415,23.252777 -21.004797,0 -20.327431,-23.402793 -20.327431,-23.402793"
       id="path4746"
       inkscape:connector-curvature="0"
       sodipodi:nodetypes="czc" />
  </g>
</svg>
