<?xml version="1.0" encoding="UTF-8" standalone="no"?>
<!-- Created with Inkscape (http://www.inkscape.org/) -->

<svg
   xmlns:dc="http://purl.org/dc/elements/1.1/"
   xmlns:cc="http://creativecommons.org/ns#"
   xmlns:rdf="http://www.w3.org/1999/02/22-rdf-syntax-ns#"
   xmlns:svg="http://www.w3.org/2000/svg"
   xmlns="http://www.w3.org/2000/svg"
   xmlns:sodipodi="http://sodipodi.sourceforge.net/DTD/sodipodi-0.dtd"
   xmlns:inkscape="http://www.inkscape.org/namespaces/inkscape"
   width="124.66537mm"
   height="116.01064mm"
   viewBox="0 0 124.66536 116.01064"
   version="1.1"
   id="svg8"
   sodipodi:docname="FX13_tshirt3.svg"
   inkscape:version="0.92.1 r15371">
  <defs
     id="defs2" />
  <sodipodi:namedview
     id="base"
     pagecolor="#ffffff"
     bordercolor="#666666"
     borderopacity="1.0"
     inkscape:pageopacity="0.0"
     inkscape:pageshadow="2"
     inkscape:zoom="1.979899"
     inkscape:cx="240.74308"
     inkscape:cy="262.24396"
     inkscape:document-units="mm"
     inkscape:current-layer="layer1"
     showgrid="false"
     inkscape:window-width="1920"
     inkscape:window-height="1016"
     inkscape:window-x="0"
     inkscape:window-y="27"
     inkscape:window-maximized="1"
     fit-margin-top="0"
     fit-margin-left="0"
     fit-margin-right="0"
     fit-margin-bottom="0" />
  <metadata
     id="metadata5">
    <rdf:RDF>
      <cc:Work
         rdf:about="">
        <dc:format>image/svg+xml</dc:format>
        <dc:type
           rdf:resource="http://purl.org/dc/dcmitype/StillImage" />
        <dc:title></dc:title>
      </cc:Work>
    </rdf:RDF>
  </metadata>
  <g
     inkscape:label="Layer 1"
     inkscape:groupmode="layer"
     id="layer1"
     transform="translate(-36.707007,-87.706978)">
    <path
       inkscape:connector-curvature="0"
       style="fill:#cccccc;stroke:#333333;stroke-width:1.87699997;stroke-linecap:round;stroke-linejoin:round;stroke-miterlimit:4;stroke-dasharray:none;stroke-opacity:1"
       d="m 82.845819,88.645478 -14.651776,5.517895 c 0,0 -26.030979,24.506847 -30.548566,28.565107 5.132178,7.58108 12.979618,17.45964 12.979618,17.45964 l 15.239804,-10.91465 c 0,0 4.228179,7.44639 4.228179,19.43232 0,11.98593 -4.228179,54.07332 -4.228179,54.07332 h 32.804544 0.740498 32.804539 c 0,0 -4.3031,-41.76778 -4.3031,-53.95934 0,-12.19156 4.3031,-19.5463 4.3031,-19.5463 l 15.2398,10.91465 c 0,0 7.84745,-9.87856 12.97962,-17.45964 -4.51758,-4.05826 -30.54857,-28.565107 -30.54857,-28.565107 L 115.23357,88.645478 H 99.409941 98.669443 Z"
       id="path4496-3"
       clip-path="none"
       sodipodi:nodetypes="ccccczcccczcccccccc" />
    <path
       style="fill:#333333;stroke:none;stroke-width:1.87732697;stroke-linecap:butt;stroke-linejoin:miter;stroke-miterlimit:4;stroke-dasharray:none;stroke-opacity:1"
       d="m 40.94497,119.69469 c -0.07578,0.0702 -0.17806,0.16549 -0.252068,0.23405 l 12.71184,18.14464 0.394576,-0.22791 C 53.144725,136.86756 43.414231,123.02467 40.94497,119.69469 Z"
       id="path4496-7"
       inkscape:connector-curvature="0"
       sodipodi:nodetypes="ccccc" />
    <path
       style="fill:#333333;stroke:none;stroke-width:1.87732697;stroke-linecap:butt;stroke-linejoin:miter;stroke-miterlimit:4;stroke-dasharray:none;stroke-opacity:1"
       clip-path="none"
       d="m 156.95091,119.47098 c -2.0899,2.74118 -12.00602,16.80907 -12.92445,18.18092 l 0.39534,0.2283 12.76854,-18.18168 c -0.0727,-0.0688 -0.16512,-0.15712 -0.23943,-0.22754 z"
       id="path4496-6"
       inkscape:connector-curvature="0"
       sodipodi:nodetypes="ccccc" />
    <path
       style="fill:none;stroke:#333333;stroke-width:1.98448944;stroke-linecap:butt;stroke-linejoin:miter;stroke-miterlimit:4;stroke-dasharray:none;stroke-opacity:1"
       d="m 82.845819,88.645478 c 0,11.776122 6.239633,20.199402 16.088991,20.155192 9.84936,-0.0442 16.19407,-7.75642 16.19407,-20.155192"
       id="path4538-6"
       inkscape:connector-curvature="0"
       sodipodi:nodetypes="czc" />
    <path
       style="fill:none;stroke:#333333;stroke-width:0.21035586;stroke-linecap:butt;stroke-linejoin:miter;stroke-miterlimit:4;stroke-dasharray:none;stroke-opacity:1"
       d="m 132.21448,129.80264 c 0,0 -4.00017,-15.19522 -3.93839,-21.74676 0.0617,-6.55154 1.60924,-13.892507 1.60924,-13.892507"
       id="path4712"
       inkscape:connector-curvature="0"
       sodipodi:nodetypes="czc" />
    <path
       style="fill:none;stroke:#333333;stroke-width:0.21035586;stroke-linecap:butt;stroke-linejoin:miter;stroke-miterlimit:4;stroke-dasharray:none;stroke-opacity:1"
       d="m 65.864899,129.80264 c 0,0 4.000172,-15.19522 3.938391,-21.74676 -0.06175,-6.55154 -1.609245,-13.892507 -1.609245,-13.892507"
       id="path4712-9"
       inkscape:connector-curvature="0"
       sodipodi:nodetypes="czc" />
    <path
       style="fill:none;stroke:#333333;stroke-width:0.21002512px;stroke-linecap:butt;stroke-linejoin:miter;stroke-opacity:1"
       d="M 83.831597,90.729652 H 115.35385"
       id="path4729"
       inkscape:connector-curvature="0" />
    <path
       style="fill:none;stroke:#333333;stroke-width:0.21002512px;stroke-linecap:butt;stroke-linejoin:miter;stroke-opacity:1"
       d="m 118.15582,89.749031 c 0,0 0.70264,21.713689 -18.913342,21.713689 -19.615981,0 -18.983401,-21.853775 -18.983401,-21.853775"
       id="path4746"
       inkscape:connector-curvature="0"
       sodipodi:nodetypes="czc" />
  </g>
</svg>
